<?xml version="1.0" encoding="utf-8"?>
<!-- Generator: Adobe Illustrator 16.0.0, SVG Export Plug-In . SVG Version: 6.00 Build 0)  -->
<!DOCTYPE svg PUBLIC "-//W3C//DTD SVG 1.1//EN" "http://www.w3.org/Graphics/SVG/1.1/DTD/svg11.dtd">
<svg version="1.1" id="Capa_1" xmlns="http://www.w3.org/2000/svg" xmlns:xlink="http://www.w3.org/1999/xlink" x="0px" y="0px"
	 width="494px" height="80px" viewBox="0 0 494 80" enable-background="new 0 0 494 80" xml:space="preserve">
<rect x="35" y="14" fill="none" width="585" height="71"/>
<g enable-background="new    ">
	<path fill="#FFFFFF" d="M57.104,38.119h18.792v22.464c-2.016,1.682-4.428,2.905-7.236,3.673c-2.808,0.767-5.58,1.151-8.316,1.151
		c-3.217,0-6.205-0.504-8.964-1.512c-2.761-1.008-5.148-2.58-7.164-4.716c-2.016-2.136-3.6-4.86-4.752-8.172
		c-1.152-3.312-1.728-7.248-1.728-11.809c0-4.752,0.684-8.795,2.052-12.132c1.368-3.336,3.168-6.048,5.4-8.136
		s4.74-3.601,7.524-4.536c2.783-0.937,5.616-1.404,8.496-1.404s5.411,0.216,7.596,0.648c2.184,0.432,3.924,0.889,5.22,1.368
		l-2.016,8.279c-1.2-0.479-2.544-0.852-4.032-1.115c-1.488-0.264-3.384-0.396-5.688-0.396c-2.064,0-3.96,0.312-5.688,0.936
		c-1.728,0.625-3.229,1.646-4.5,3.061c-1.272,1.416-2.257,3.229-2.952,5.436c-0.696,2.209-1.044,4.896-1.044,8.064
		c0,3.024,0.335,5.628,1.008,7.812c0.672,2.186,1.608,3.985,2.808,5.4c1.199,1.416,2.604,2.46,4.212,3.132
		c1.608,0.673,3.323,1.008,5.148,1.008c1.248,0,2.472-0.155,3.672-0.468c1.199-0.312,2.207-0.779,3.024-1.404v-9.504l-10.872-1.151
		V38.119z"/>
	<path fill="#FFFFFF" d="M83.167,13.999c1.008-0.144,2.148-0.263,3.42-0.359c1.271-0.096,2.58-0.168,3.924-0.216
		c1.343-0.048,2.651-0.084,3.924-0.108c1.271-0.023,2.412-0.036,3.42-0.036c4.464,0,8.28,0.624,11.448,1.872
		c3.168,1.249,5.735,3,7.704,5.256c1.967,2.257,3.407,4.944,4.32,8.064c0.911,3.12,1.368,6.552,1.368,10.296
		c0,3.408-0.432,6.696-1.296,9.864c-0.864,3.168-2.304,5.976-4.32,8.424c-2.016,2.447-4.668,4.416-7.956,5.903
		c-3.288,1.487-7.356,2.232-12.204,2.232c-0.768,0-1.789-0.024-3.06-0.072c-1.272-0.048-2.592-0.107-3.96-0.18
		c-1.368-0.072-2.676-0.144-3.924-0.216c-1.249-0.072-2.185-0.156-2.808-0.252V13.999z M98.647,22.063
		c-1.056,0-2.124,0.024-3.204,0.072c-1.08,0.048-1.885,0.12-2.412,0.216v33.768c0.191,0.049,0.515,0.085,0.972,0.108
		c0.456,0.024,0.947,0.048,1.476,0.072c0.528,0.024,1.032,0.048,1.512,0.071c0.479,0.025,0.839,0.036,1.08,0.036
		c2.783,0,5.1-0.491,6.948-1.476c1.847-0.983,3.312-2.292,4.392-3.924s1.836-3.516,2.268-5.652c0.432-2.136,0.648-4.331,0.648-6.588
		c0-1.968-0.192-3.948-0.576-5.94c-0.385-1.991-1.092-3.779-2.124-5.363c-1.033-1.584-2.437-2.881-4.212-3.889
		C103.639,22.567,101.384,22.063,98.647,22.063z"/>
	<path fill="#FFFFFF" d="M161.646,64.399H129.75v-50.4h9.864v41.616h22.032V64.399z"/>
	<path fill="#FFFFFF" d="M173.599,42.151l0.936,8.928h0.288l1.008-9.071l8.784-28.009h6.48l8.64,28.152l1.008,8.928h0.288
		l1.102-9.071l6.243-28.009h9.864L204.343,64.76h-6.624l-9-28.009l-1.224-7.703h-0.36l-1.224,7.775l-8.928,27.937h-6.984
		l-13.824-50.761h10.728L173.599,42.151z"/>
	<path fill="#FFFFFF" d="M222.559,13.999h29.881v8.784h-20.017V34.52h18.216v8.784h-18.216v12.312h20.376v8.784h-30.24V13.999z"/>
	<path fill="#FFFFFF" d="M294.054,25.735c0,1.249-0.155,2.496-0.466,3.744c-0.311,1.249-0.823,2.389-1.539,3.42
		c-0.715,1.033-1.646,1.944-2.791,2.736c-1.145,0.792-2.529,1.38-4.151,1.764v0.432c1.433,0.241,2.794,0.648,4.083,1.225
		s2.412,1.368,3.367,2.376s1.707,2.231,2.256,3.672c0.55,1.439,0.825,3.145,0.825,5.112c0,2.592-0.552,4.836-1.655,6.731
		c-1.105,1.896-2.582,3.445-4.429,4.645c-1.849,1.2-3.948,2.088-6.3,2.664c-2.353,0.575-4.777,0.863-7.271,0.863
		c-0.817,0-1.861,0-3.133,0s-2.641-0.036-4.104-0.107c-1.465-0.072-2.952-0.181-4.465-0.324c-1.512-0.145-2.893-0.36-4.14-0.648
		v-49.68c0.911-0.144,1.956-0.288,3.132-0.432c1.176-0.145,2.436-0.264,3.78-0.36c1.343-0.096,2.724-0.168,4.14-0.216
		s2.82-0.072,4.213-0.072c2.351,0,4.644,0.18,6.875,0.54c2.232,0.36,4.224,0.997,5.977,1.908c1.752,0.912,3.156,2.185,4.212,3.815
		C293.525,21.176,294.054,23.24,294.054,25.735z M272.958,35.167c0.671,0,1.451-0.023,2.34-0.07c0.888-0.048,1.62-0.119,2.196-0.214
		c1.823-0.569,3.395-1.424,4.716-2.565c1.319-1.14,1.979-2.636,1.979-4.488c0-1.235-0.24-2.256-0.72-3.063
		c-0.48-0.808-1.116-1.449-1.907-1.924c-0.793-0.475-1.693-0.807-2.701-0.997c-1.008-0.189-2.064-0.285-3.168-0.285
		c-1.248,0-2.4,0.024-3.455,0.072c-1.057,0.047-1.873,0.118-2.449,0.212v13.323H272.958z M276.08,56.84
		c1.179,0,2.322-0.143,3.429-0.428s2.085-0.725,2.935-1.318c0.848-0.595,1.53-1.343,2.049-2.246
		c0.518-0.902,0.777-1.972,0.777-3.207c0-1.568-0.307-2.804-0.919-3.706c-0.613-0.902-1.414-1.603-2.404-2.103
		c-0.989-0.499-2.097-0.82-3.321-0.963c-1.226-0.142-2.451-0.214-3.675-0.214h-5.161v13.757c0.236,0.096,0.613,0.166,1.131,0.214
		c0.518,0.047,1.071,0.083,1.661,0.106c0.589,0.024,1.201,0.049,1.838,0.072S275.609,56.84,276.08,56.84z"/>
	<path fill="#FFFFFF" d="M336.821,62.336c-1.537,1.096-3.492,1.881-5.868,2.357c-2.376,0.476-4.812,0.714-7.309,0.714
		c-3.023,0-5.893-0.468-8.604-1.404c-2.713-0.936-5.101-2.447-7.164-4.535c-2.064-2.088-3.708-4.8-4.932-8.137
		c-1.225-3.335-1.836-7.38-1.836-12.132c0-4.943,0.684-9.083,2.052-12.42c1.368-3.336,3.144-6.023,5.328-8.063
		c2.184-2.04,4.619-3.504,7.308-4.393c2.688-0.888,5.375-1.332,8.064-1.332c2.88,0,5.315,0.192,7.308,0.576
		c1.991,0.385,3.636,0.841,4.933,1.368l-1.944,8.352c-1.104-0.527-2.412-0.911-3.925-1.151c-1.512-0.24-3.348-0.36-5.508-0.36
		c-3.984,0-7.188,1.42-9.611,4.257c-2.425,2.839-3.637,7.239-3.637,13.203c0,2.598,0.289,4.967,0.864,7.106
		c0.576,2.142,1.452,3.97,2.628,5.483c1.176,1.516,2.64,2.694,4.393,3.536c1.752,0.842,3.779,1.262,6.084,1.262
		c2.16,0,3.983-0.216,5.472-0.647c1.487-0.433,2.783-0.983,3.888-1.656L336.821,62.336z"/>
	<path fill="#FFFFFF" d="M364.613,53.239h-15.48l-3.816,11.16h-9.863l18.145-50.76h7.271l18.145,50.76h-10.369L364.613,53.239z
		 M351.653,45.319h10.8l-3.744-11.231l-1.512-7.921h-0.36l-1.512,7.992L351.653,45.319z"/>
	<path fill="#FFFFFF" d="M422.429,38.264l1.08-10.008h-0.433l-3.096,8.063l-10.728,18.792h-3.169l-11.303-18.864l-3.168-7.991h-0.36
		l1.44,9.936v26.208h-9.361v-50.4h9l13.465,23.04l2.376,5.761h0.288l2.16-5.904l12.744-22.896h8.928v50.4h-9.864V38.264z"/>
	<path fill="#FFFFFF" d="M440.932,14.503c2.016-0.383,4.235-0.684,6.66-0.899c2.423-0.216,4.835-0.324,7.235-0.324
		c2.495,0,5.004,0.205,7.524,0.612c2.52,0.408,4.788,1.224,6.804,2.448c2.016,1.224,3.66,2.928,4.932,5.111
		c1.271,2.185,1.908,5.029,1.908,8.532c0,3.168-0.552,5.845-1.656,8.028c-1.104,2.185-2.568,3.972-4.392,5.363
		c-1.824,1.394-3.9,2.401-6.228,3.024c-2.329,0.624-4.741,0.936-7.236,0.936c-0.241,0-0.624,0-1.152,0s-1.08-0.011-1.655-0.035
		c-0.576-0.024-1.142-0.06-1.692-0.108c-0.553-0.047-0.948-0.096-1.188-0.144v17.352h-9.863V14.503z M455.619,21.775
		c-0.961,0-1.872,0.036-2.735,0.108c-0.864,0.071-1.561,0.156-2.089,0.252v16.344c0.191,0.048,0.479,0.097,0.864,0.144
		c0.384,0.049,0.792,0.085,1.225,0.108c0.432,0.024,0.852,0.036,1.26,0.036c0.407,0,0.707,0,0.899,0c1.296,0,2.58-0.119,3.853-0.36
		c1.271-0.239,2.412-0.684,3.42-1.332c1.008-0.647,1.812-1.548,2.412-2.7c0.6-1.151,0.899-2.664,0.899-4.535
		c0-1.584-0.288-2.892-0.863-3.925c-0.576-1.031-1.332-1.859-2.269-2.483c-0.936-0.623-2.005-1.056-3.204-1.296
		C458.091,21.896,456.867,21.775,455.619,21.775z"/>
</g>
<rect x="5" y="9.175" fill="#FE4918" width="18" height="58.825"/>
</svg>
